<?xml version="1.0" encoding="utf-8"?>
<!-- Generator: Adobe Illustrator 24.3.0, SVG Export Plug-In . SVG Version: 6.00 Build 0)  -->
<svg version="1.1" xmlns="http://www.w3.org/2000/svg" xmlns:xlink="http://www.w3.org/1999/xlink" x="0px" y="0px"
	 viewBox="0 0 120 62" style="enable-background:new 0 0 120 62;" xml:space="preserve">
<style type="text/css">
	.st0{fill:#E0AD17;}
	.st1{fill:#00327B;}
	.st2{fill:#C22115;}
</style>
<g id="Capa_1">
	<g id="Capa_1_1_">
	</g>
</g>
<g id="Modo_de_aislamiento">
	<g>
		<polygon class="st0" points="101.2,49.5 74.9,51.8 75.8,47.7 102,45.4 		"/>
		<path class="st1" d="M115.6,20.4c0.6,0,2.1,0.1,2.7,0.7l1.4-6.6c-1.3-0.2-3.4-0.2-4.7-0.1c-6.6,0.6-8.9,5.6-9.5,7.8
			c-1.3-4-5.1-6.5-10-6.1c-7.1,0.6-14.4,7-16,14.2c-0.1,0.3-0.1,0.5-0.1,0.8c-0.6-1.1-1.8-1.8-3.5-1.9c1.1,0.1,4.2-2,4-6
			c-0.2-3.3-3-4.8-7.9-4.3l-6.5,0.6l-3.9,18.3l-2.9-18.1l-9.3,11.3L44,21.2l-8.2,18.8l-9.8,0.9l0.7-3.1l7.8-0.7l1.2-5.4l-7.8,0.7
			l0.7-3.1l9.7-0.8l1.4-6.6l-16.3,1.4l-3.3,15.6c-0.1-2.5-1.5-4-4.1-4.3c1.1,0.1,4.2-2,4-6c-0.2-3.3-3-4.8-7.9-4.3l-6.5,0.6
			L0.2,49.5l9.3-0.8c5.1-0.4,8.4-3.6,9.6-6.1L18,47.9L39.8,46l4.8-10.9l3.9,6.9l6-7.2l1.2,9.7l13.8-1.2c6-0.5,9.4-4.8,10.1-7.3
			c1.2,4.1,5.1,6.7,10.1,6.2c7.1-0.6,14.4-7,16-14.2c0.1-0.3,0.1-0.6,0.2-0.8c1.4,2.3,4.5,3,4,5c-0.3,1.2-1.3,2-2.5,2.1
			c-0.6,0.1-1.5,0-3-0.3l-1.3,6.4c0,0,3.1,0.7,6,0.2c4.2-0.7,8.3-3,8.7-9c0.5-6.6-5.7-6-5-9.1C113.1,21.2,114.3,20.5,115.6,20.4z
			 M12.4,40.8c-0.2,0.9-0.9,2.3-3,2.5l-1.6,0.1L8.8,39l1.5-0.1C11.3,38.8,12.8,39,12.4,40.8z M14,31.3c-0.5,2-2.2,2.1-3,2.2
			l-1.1,0.1l0.8-3.9l1.1-0.1C12.6,29.5,14.4,29.3,14,31.3z M72.4,35.5c-0.2,0.9-0.9,2.3-3,2.5l-1.6,0.1l0.9-4.5l1.5-0.1
			C71.3,33.5,72.9,33.7,72.4,35.5z M74,26c-0.5,2-2.2,2.1-3,2.2l-1.1,0.1l0.8-3.9l1.1-0.1C72.6,24.2,74.4,24.1,74,26z M99,28.7
			c-0.8,3.4-4.3,6.7-7.8,7c-3.5,0.3-5.7-2.3-4.9-5.9c0.8-3.6,4.3-6.7,7.8-7C97.5,22.5,99.7,25.3,99,28.7z"/>
		<polygon class="st2" points="78.6,14.3 52.4,16.6 53.3,12.5 79.5,10.2 		"/>
	</g>
</g>
</svg>
