<svg width="273" height="53" viewBox="0 0 273 53" fill="none" xmlns="http://www.w3.org/2000/svg">
<g clip-path="url(#clip0)">
<path d="M175.779 18.5166H171.647C171.551 17.3772 171.394 16.4728 171.187 16.0078C169.882 13.0112 166.374 11.0696 163.09 10.2827V5.68425C163.09 5.27172 163.01 4.86323 162.854 4.48213C162.698 4.10104 162.469 3.7548 162.18 3.46322C161.892 3.17163 161.549 2.94041 161.172 2.78278C160.796 2.62514 160.392 2.54418 159.984 2.54451H150.414C149.591 2.54451 148.801 2.87522 148.219 3.46396C147.636 4.05271 147.309 4.8513 147.308 5.68425V10.2265C147.929 10.132 148.571 10.0605 149.24 10.0068C148.578 10.0605 147.929 10.132 147.308 10.2265C146.975 10.2776 146.646 10.3313 146.328 10.3977C141.489 11.4196 139.446 13.7597 138.91 18.5166H134.635C133.811 18.5166 133.02 18.8475 132.437 19.4368C131.854 20.026 131.526 20.8252 131.526 21.6588V31.3386C131.526 32.1723 131.854 32.9715 132.437 33.5607C133.02 34.15 133.811 34.4809 134.635 34.4809H138.971C138.971 34.4094 138.958 34.3353 138.951 34.2612C138.951 34.3353 138.951 34.4094 138.971 34.4809C139.512 39.621 143.105 41.5498 147.305 42.2932V47.303C147.306 48.1366 147.634 48.9359 148.217 49.5251C148.8 50.1143 149.59 50.4453 150.414 50.4453H159.981C160.389 50.4453 160.793 50.364 161.17 50.2061C161.547 50.0482 161.889 49.8167 162.178 49.525C162.466 49.2332 162.695 48.8868 162.851 48.5055C163.007 48.1243 163.088 47.7157 163.088 47.303V42.983L163.545 42.9396C168.412 42.4772 170.745 38.829 171.488 34.486H175.779C176.602 34.4854 177.392 34.154 177.974 33.5648C178.556 32.9756 178.883 32.1767 178.883 31.3438V21.6588C178.883 20.8259 178.556 20.027 177.974 19.4378C177.392 18.8486 176.602 18.5172 175.779 18.5166Z" fill="white" stroke="white" stroke-width="20" stroke-miterlimit="10"/>
<path d="M149.543 42.3289C148.785 42.2625 148.028 42.1654 147.308 42.0377V47.0475C147.309 47.8811 147.636 48.6803 148.219 49.2696C148.802 49.8588 149.593 50.1898 150.417 50.1898H159.984C160.392 50.1898 160.796 50.1085 161.173 49.9506C161.549 49.7926 161.892 49.5612 162.18 49.2694C162.469 48.9776 162.698 48.6312 162.854 48.25C163.01 47.8687 163.09 47.4601 163.09 47.0475V42.7275C158.797 43.1285 153.902 42.7862 149.543 42.334" fill="#FAC26F"/>
<path d="M160.014 9.65427C161.05 9.66171 162.082 9.78682 163.09 10.0273V5.42879C163.09 5.01625 163.01 4.60777 162.854 4.22667C162.698 3.84557 162.469 3.49934 162.18 3.20775C161.892 2.91617 161.549 2.68495 161.172 2.52731C160.795 2.36968 160.392 2.28871 159.984 2.28905H150.414C149.591 2.28905 148.801 2.61976 148.219 3.2085C147.636 3.79724 147.309 4.59584 147.308 5.42879V9.97106C151.233 9.37326 156.173 9.65427 160.014 9.65427Z" fill="#FAC26F"/>
<path d="M138.867 18.6698C138.883 18.5319 138.898 18.3965 138.91 18.2611H134.635C133.811 18.2611 133.02 18.5921 132.437 19.1813C131.854 19.7705 131.526 20.5697 131.526 21.4034V31.0832C131.526 31.9168 131.854 32.716 132.437 33.3053C133.02 33.8945 133.811 34.2255 134.635 34.2255H138.971C138.958 34.0952 138.943 33.97 138.933 33.8269C138.428 26.5562 138.521 22.4431 138.867 18.6698Z" fill="#FAC26F"/>
<path d="M175.779 18.2611H171.647C171.96 21.9629 171.75 28.2244 171.766 30.7383C171.772 31.9067 171.678 33.0735 171.485 34.2255H175.779C176.602 34.2248 177.392 33.8934 177.974 33.3042C178.556 32.715 178.883 31.9161 178.883 31.0832V21.4034C178.883 20.5704 178.556 19.7716 177.974 19.1823C177.392 18.5931 176.602 18.2618 175.779 18.2611Z" fill="#FAC26F"/>
<path d="M144.209 18.2611C145.033 18.2611 145.823 17.93 146.406 17.3407C146.988 16.7514 147.316 15.9522 147.316 15.1188V9.97105C146.982 10.0221 146.654 10.0758 146.336 10.1422C141.497 11.1641 139.453 13.5042 138.918 18.2611H144.222H144.209Z" fill="#F18925"/>
<path d="M163.09 15.1187C163.091 15.9515 163.418 16.75 164 17.339C164.582 17.9281 165.371 18.2597 166.194 18.261H171.647C171.551 17.1216 171.394 16.2173 171.187 15.7523C169.882 12.7556 166.374 10.8141 163.09 10.0272V15.1085V15.1187Z" fill="#F18925"/>
<path d="M166.194 34.2254C165.372 34.2274 164.584 34.5585 164.003 35.1463C163.421 35.7342 163.093 36.5309 163.09 37.3626V42.7275L163.547 42.684C168.414 42.2216 170.748 38.5735 171.49 34.2305H166.187L166.194 34.2254Z" fill="#F18925"/>
<path d="M147.308 37.3626C147.308 36.9499 147.228 36.5413 147.071 36.1601C146.915 35.7789 146.686 35.4325 146.398 35.1407C146.11 34.8489 145.767 34.6174 145.39 34.4595C145.013 34.3016 144.609 34.2203 144.201 34.2203H138.971C139.511 39.3604 143.105 41.2892 147.305 42.0326V37.3626H147.308Z" fill="#F18925"/>
<path d="M163.214 28.1656C163.229 30.9503 162.204 33.6991 159.208 33.9853C157.067 34.2152 154.584 34.0415 152.389 33.8141C149.864 33.5842 147.444 32.7743 147.222 29.6729C146.969 26.1295 147.022 24.1241 147.192 22.2898C147.414 19.8347 148.401 18.6442 150.823 18.1307C152.798 17.7322 155.46 17.8957 157.494 17.8957C159.355 17.8957 162.09 18.9176 162.936 20.8668C163.388 21.8351 163.209 26.5664 163.219 28.1656H163.214ZM171.652 18.2712H166.194C165.371 18.2699 164.582 17.9383 164 17.3492C163.418 16.7602 163.091 15.9617 163.09 15.129V10.0272C162.082 9.78332 161.05 9.65478 160.014 9.64399C156.173 9.64399 151.233 9.36297 147.308 9.96077V15.1085C147.308 15.5212 147.228 15.9298 147.071 16.311C146.915 16.6923 146.686 17.0387 146.398 17.3304C146.11 17.6222 145.767 17.8537 145.39 18.0116C145.013 18.1695 144.609 18.2508 144.201 18.2508H138.905C138.905 18.3862 138.878 18.5216 138.862 18.6596C138.519 22.4303 138.413 26.5459 138.928 33.8166C138.928 33.9546 138.953 34.0849 138.966 34.2152H144.209C145.033 34.2152 145.823 34.5462 146.406 35.1355C146.988 35.7248 147.315 36.5241 147.315 37.3575V42.0377C148.048 42.1654 148.795 42.2625 149.551 42.3289C153.91 42.7811 158.804 43.1235 163.098 42.7224V37.3626C163.098 36.5296 163.426 35.7309 164.007 35.1414C164.589 34.5519 165.378 34.2198 166.202 34.2177H171.505C171.697 33.0656 171.789 31.8988 171.781 30.7306C171.766 28.2218 171.975 21.9551 171.662 18.2534" fill="#E7443E"/>
<path d="M162.931 20.8566C162.085 18.915 159.347 17.8855 157.489 17.8855C155.455 17.8855 152.793 17.722 150.818 18.1205C148.394 18.6315 147.411 19.8245 147.187 22.2796C147.017 24.1139 146.967 26.1116 147.217 29.6627C147.439 32.7641 149.849 33.574 152.384 33.8039C154.584 34.0312 157.067 34.205 159.203 33.975C162.191 33.6889 163.224 30.94 163.209 28.158C163.209 26.5562 163.378 21.8248 162.926 20.8566" fill="#B31829"/>
</g>
<path d="M9.695 41.49C16.52 41.49 19.915 38.725 19.915 33.79C19.915 29.625 16.52 27.7 12.075 26.72C9.695 26.195 7.875 26.3 7.875 25.005C7.875 23.85 8.89 23.22 10.92 23.22C13.055 23.22 15.4 24.27 16.905 25.67C17.045 25.81 19.39 24.13 19.39 22.17C19.39 19.93 16.8 17.865 10.85 17.865C4.62 17.865 1.19 20.77 1.19 25.39C1.19 30.115 5.005 31.69 8.785 32.46C11.025 32.95 12.845 32.95 12.845 34.35C12.845 35.505 11.83 36.135 9.695 36.135C7.28 36.135 4.445 34.84 2.975 33.51C2.765 33.335 0.665 35.155 0.665 36.835C0.665 39.215 3.045 41.49 9.695 41.49ZM33.3862 41.49C40.3862 41.49 45.3562 36.555 45.3562 29.66C45.3562 22.8 40.3862 17.865 33.4212 17.865C26.4562 17.865 21.4512 22.8 21.4512 29.66C21.4512 36.59 26.4212 41.49 33.3862 41.49ZM33.4212 35.225C30.3762 35.225 28.3812 33.02 28.3812 29.66C28.3812 26.23 30.3412 24.06 33.3862 24.06C36.4312 24.06 38.4262 26.335 38.4262 29.66C38.4262 33.02 36.4312 35.225 33.4212 35.225ZM50.5851 41.175H51.7051C53.7351 41.175 54.4351 40.055 54.4351 37.92V28.505L56.7801 34.875C57.1651 35.785 57.0951 36.59 59.7201 36.59C62.3451 36.59 62.3801 35.75 62.6951 34.875L65.0401 28.225V37.92C65.0401 40.055 65.8801 41.175 67.8051 41.175H68.9251C70.9201 41.175 71.6551 40.055 71.6551 37.92V21.54C71.6551 19.335 70.5351 18.18 68.4351 18.18H66.4751C64.8651 18.18 64.1301 18.53 63.4651 20.07L59.7551 29.135L56.0801 20.07C55.4501 18.635 54.8201 18.18 52.9651 18.18H50.9701C48.9401 18.18 47.8201 19.335 47.8201 21.54V37.92C47.8201 40.055 48.6251 41.175 50.5851 41.175ZM86.0913 41.49C93.0913 41.49 98.0613 36.555 98.0613 29.66C98.0613 22.8 93.0913 17.865 86.1263 17.865C79.1613 17.865 74.1563 22.8 74.1563 29.66C74.1563 36.59 79.1263 41.49 86.0913 41.49ZM86.1263 35.225C83.0813 35.225 81.0863 33.02 81.0863 29.66C81.0863 26.23 83.0463 24.06 86.0913 24.06C89.1363 24.06 91.1313 26.335 91.1313 29.66C91.1313 33.02 89.1363 35.225 86.1263 35.225ZM108.645 41.49C115.47 41.49 118.865 38.725 118.865 33.79C118.865 29.625 115.47 27.7 111.025 26.72C108.645 26.195 106.825 26.3 106.825 25.005C106.825 23.85 107.84 23.22 109.87 23.22C112.005 23.22 114.35 24.27 115.855 25.67C115.995 25.81 118.34 24.13 118.34 22.17C118.34 19.93 115.75 17.865 109.8 17.865C103.57 17.865 100.14 20.77 100.14 25.39C100.14 30.115 103.955 31.69 107.735 32.46C109.975 32.95 111.795 32.95 111.795 34.35C111.795 35.505 110.78 36.135 108.645 36.135C106.23 36.135 103.395 34.84 101.925 33.51C101.715 33.335 99.6152 35.155 99.6152 36.835C99.6152 39.215 101.995 41.49 108.645 41.49Z" fill="#928681"/>
<path d="M195.55 41.175H196.145C198.14 41.175 199.19 40.055 199.19 37.92V28.89L207.485 39.635C208.43 40.755 208.92 41.175 210.6 41.175H211.16C212.91 41.175 213.995 40.09 213.995 37.92V21.435C213.995 19.3 212.98 18.18 211.055 18.18H210.46C208.43 18.18 207.415 19.3 207.415 21.435V30.395L199.295 19.825C198.315 18.67 197.79 18.18 196.145 18.18H195.48C193.66 18.18 192.575 19.265 192.575 21.435V37.92C192.575 40.055 193.59 41.175 195.55 41.175ZM233.984 38.48C234.544 40.615 236.049 41.175 237.449 41.175C238.709 41.175 239.794 40.685 239.794 40.475V30.99C239.829 28.96 239.409 28.015 237.379 28.015H231.219C229.014 28.015 227.929 28.435 227.929 30.43V30.745C227.929 32.67 229.014 33.16 231.219 33.16H233.564C233.214 34.98 231.604 36.135 229.119 36.135C225.969 36.135 223.694 33.72 223.694 30.01C223.694 26.335 226.214 23.85 229.434 23.85C231.429 23.85 233.249 24.725 234.474 26.265C234.649 26.51 237.974 25.635 237.974 23.115C237.974 20.105 234.684 17.865 229.014 17.865C221.559 17.865 216.624 22.8 216.624 29.66C216.624 36.45 220.859 41.35 227.404 41.35C230.554 41.35 232.759 40.23 233.984 38.48ZM249.578 28.96V23.675H252.448C254.653 23.675 255.668 24.585 255.668 26.335C255.668 28.015 254.618 28.96 252.518 28.96H249.578ZM257.803 32.425C261.023 31.515 262.703 29.1 262.703 25.81C262.703 20.945 259.553 18.355 253.253 18.355H246.253C243.943 18.355 242.648 19.72 242.648 22.275V37.115C242.648 39.67 243.698 41.175 245.623 41.175H246.603C248.633 41.175 249.683 40.02 249.683 37.92V33.965H250.978L254.163 38.2C255.633 40.23 256.718 41.175 258.888 41.175C261.898 41.175 263.123 39.04 262.913 38.76L257.803 32.425Z" fill="#928681"/>
<defs>
<clipPath id="clip0">
<rect width="118" height="53" fill="white" transform="translate(129)"/>
</clipPath>
</defs>
</svg>
