<?xml version="1.0" encoding="utf-8"?>
<!-- Generator: Adobe Illustrator 24.3.0, SVG Export Plug-In . SVG Version: 6.00 Build 0)  -->
<svg version="1.1" id="Capa_1" xmlns="http://www.w3.org/2000/svg" xmlns:xlink="http://www.w3.org/1999/xlink" x="0px" y="0px"
	 viewBox="0 0 120 62" style="enable-background:new 0 0 120 62;" xml:space="preserve">
<style type="text/css">
	.st0{fill:#8D807E;}
	.st1{fill:#EDBE71;}
	.st2{fill:#E1892A;}
	.st3{fill:#D65641;}
	.st4{fill:#A5102C;}
</style>
<g id="Capa_1_1_">
</g>
<g>
	<g>
		<path class="st0" d="M68.5,39.6c-1.5,0-2.2-0.8-2.2-2.4V24.9c0-0.8,0.2-1.4,0.6-1.8c0.4-0.4,0.9-0.6,1.6-0.6H69
			c0.3,0,0.6,0,0.8,0.1c0.2,0,0.4,0.1,0.6,0.2c0.2,0.1,0.3,0.2,0.5,0.4c0.1,0.2,0.3,0.3,0.5,0.6l6.1,7.9v-6.7c0-1.6,0.8-2.4,2.3-2.4
			h0.4c1.5,0,2.2,0.8,2.2,2.4v12.3c0,0.8-0.2,1.4-0.6,1.8c-0.4,0.4-0.9,0.6-1.6,0.6h-0.4c-0.3,0-0.6,0-0.8-0.1
			c-0.2,0-0.4-0.1-0.6-0.2c-0.2-0.1-0.3-0.2-0.5-0.4c-0.1-0.1-0.3-0.3-0.5-0.5l-6.2-8v6.7c0,1.6-0.8,2.4-2.3,2.4H68.5z"/>
		<path class="st0" d="M97.7,37.6c-0.5,0.7-1.1,1.2-1.9,1.6c-0.8,0.4-1.8,0.6-3,0.6c-1.2,0-2.3-0.2-3.3-0.7c-1-0.4-1.8-1-2.5-1.8
			c-0.7-0.8-1.2-1.7-1.6-2.8c-0.4-1.1-0.6-2.2-0.6-3.5c0-1.3,0.2-2.4,0.7-3.5c0.4-1.1,1.1-2,1.9-2.8c0.8-0.8,1.8-1.4,2.9-1.8
			c1.1-0.4,2.4-0.7,3.8-0.7c1.1,0,2,0.1,2.8,0.3c0.8,0.2,1.5,0.5,2.1,0.8c0.6,0.4,1,0.8,1.3,1.2c0.3,0.5,0.4,1,0.4,1.6
			c0,0.5-0.1,0.9-0.4,1.2c-0.3,0.3-0.5,0.6-0.9,0.8c-0.3,0.2-0.6,0.3-0.9,0.4c-0.3,0.1-0.4,0.1-0.5,0c-0.5-0.6-1-1-1.7-1.3
			c-0.7-0.3-1.4-0.5-2.1-0.5c-0.6,0-1.2,0.1-1.7,0.3c-0.5,0.2-1,0.5-1.4,0.9c-0.4,0.4-0.7,0.9-0.9,1.5C90.1,30,90,30.6,90,31.3
			c0,0.7,0.1,1.3,0.3,1.9c0.2,0.6,0.5,1,0.8,1.4c0.4,0.4,0.8,0.7,1.3,0.9c0.5,0.2,1,0.3,1.6,0.3c0.9,0,1.7-0.2,2.3-0.6
			c0.6-0.4,0.9-0.9,1.1-1.6h-1.8c-0.8,0-1.4-0.1-1.8-0.4c-0.4-0.2-0.6-0.7-0.6-1.4v-0.2c0-0.7,0.2-1.2,0.6-1.5
			c0.4-0.2,1-0.3,1.9-0.3h4.6c0.7,0,1.2,0.2,1.5,0.5c0.2,0.4,0.3,0.9,0.3,1.7v7.1c0,0.1-0.2,0.2-0.5,0.3c-0.3,0.1-0.8,0.2-1.2,0.2
			c-0.3,0-0.5,0-0.8-0.1c-0.3-0.1-0.5-0.2-0.7-0.3c-0.2-0.1-0.4-0.4-0.6-0.6C98,38.4,97.8,38,97.7,37.6z"/>
		<path class="st0" d="M120,37.8c0,0.1,0,0.2-0.1,0.4c-0.1,0.2-0.3,0.4-0.5,0.6c-0.2,0.2-0.6,0.4-1,0.6c-0.4,0.2-0.9,0.2-1.4,0.2
			c-0.4,0-0.8,0-1.1-0.1c-0.3-0.1-0.6-0.2-0.9-0.4c-0.3-0.2-0.5-0.4-0.8-0.7c-0.2-0.3-0.5-0.6-0.8-1l-2.4-3.2h-1v3
			c0,0.8-0.2,1.4-0.6,1.8c-0.4,0.4-1,0.6-1.7,0.6h-0.7c-0.7,0-1.3-0.3-1.7-0.8c-0.4-0.5-0.6-1.3-0.6-2.2V25.5c0-1,0.2-1.7,0.7-2.2
			c0.5-0.5,1.1-0.7,2-0.7h5.2c2.4,0,4.1,0.5,5.3,1.4c1.2,0.9,1.8,2.3,1.8,4.2c0,1.2-0.3,2.3-0.9,3.1c-0.6,0.9-1.5,1.5-2.7,1.8
			L120,37.8z M112.2,30.5c0.8,0,1.4-0.2,1.8-0.5c0.4-0.3,0.6-0.8,0.6-1.5c0-1.3-0.8-2-2.4-2H110v3.9H112.2z"/>
	</g>
	<path class="st1" d="M19.1,47.9c-0.8-0.1-1.6-0.2-2.4-0.3v5.3c0,1.8,1.5,3.3,3.3,3.3h10.2c1.8,0,3.3-1.5,3.3-3.3v-4.5
		C29,48.7,23.8,48.4,19.1,47.9z"/>
	<path class="st1" d="M30.3,13.6c1,0,2.1,0.1,3.3,0.4V9.1c0-1.8-1.5-3.3-3.3-3.3H20.1c-1.8,0-3.3,1.5-3.3,3.3v4.8
		C20.9,13.3,26.2,13.6,30.3,13.6z"/>
	<path class="st1" d="M7.8,23c0-0.1,0-0.3,0-0.4H3.3c-1.8,0-3.3,1.5-3.3,3.3v10.2c0,1.8,1.5,3.3,3.3,3.3h4.6c0-0.1,0-0.3,0-0.4
		C7.3,31.3,7.4,27,7.8,23z"/>
	<path class="st1" d="M47,22.6h-4.4c0.3,3.9,0.1,10.5,0.1,13.1c0,1.2-0.1,2.5-0.3,3.7H47c1.8,0,3.3-1.5,3.3-3.3V25.9
		C50.3,24.1,48.8,22.6,47,22.6z"/>
	<g>
		<path class="st2" d="M13.5,22.6c1.8,0,3.3-1.5,3.3-3.3v-3.1v-2.3c-0.4,0.1-0.7,0.1-1,0.2c-5.1,1.1-7.3,3.5-7.9,8.5h2.1H13.5z"/>
	</g>
	<g>
		<path class="st2" d="M33.5,19.3c0,1.8,1.5,3.3,3.3,3.3h3.5h2.3c-0.1-1.2-0.3-2.1-0.5-2.6c-1.4-3.1-5.1-5.2-8.6-6v2.3V19.3z"/>
	</g>
	<g>
		<path class="st2" d="M36.8,39.4c-1.8,0-3.3,1.5-3.3,3.3v3.5v2.2c0.2,0,0.3,0,0.5,0c5.2-0.5,7.6-4.3,8.4-8.9h-2.1H36.8z"/>
	</g>
	<g>
		<path class="st2" d="M16.8,42.7c0-1.8-1.5-3.3-3.3-3.3H9.9h-2c0.6,5.4,4.4,7.4,8.9,8.2v-1.4V42.7z"/>
	</g>
	<path class="st3" d="M42.6,22.6h-2.3h-3.5c-1.8,0-3.3-1.5-3.3-3.3v-3.1V14c-1.1-0.3-2.3-0.4-3.3-0.4c-4.1,0-9.3-0.3-13.5,0.3v2.3
		v3.1c0,1.8-1.5,3.3-3.3,3.3H9.9H7.8c0,0.1,0,0.3,0,0.4C7.4,27,7.3,31.3,7.9,39c0,0.1,0,0.3,0,0.4h2h3.5c1.8,0,3.3,1.5,3.3,3.3v3.5
		v1.4c0.8,0.1,1.6,0.2,2.4,0.3c4.6,0.5,9.8,0.8,14.4,0.4v-2.2v-3.5c0-1.8,1.5-3.3,3.3-3.3h3.5h2.1c0.2-1.2,0.3-2.4,0.3-3.7
		C42.7,33.1,43,26.5,42.6,22.6z M33.7,33c0,2.9-1.1,5.8-4.3,6.1c-2.3,0.2-4.9,0.1-7.2-0.2c-2.7-0.2-5.3-1.1-5.5-4.3
		c-0.3-3.7-0.2-5.8,0-7.8c0.2-2.6,1.3-3.8,3.9-4.4c2.1-0.4,4.9-0.2,7.1-0.2c2,0,4.9,1.1,5.8,3.1C33.8,26.4,33.7,31.3,33.7,33z"/>
	<path class="st4" d="M33.4,25.3c-0.9-2-3.8-3.1-5.8-3.1c-2.2,0-5-0.2-7.1,0.2c-2.6,0.5-3.6,1.8-3.9,4.4c-0.2,1.9-0.2,4,0,7.8
		c0.2,3.3,2.8,4.1,5.5,4.3c2.3,0.2,5,0.4,7.2,0.2c3.2-0.3,4.3-3.2,4.3-6.1C33.7,31.3,33.8,26.4,33.4,25.3z"/>
</g>
</svg>
