<?xml version="1.0" encoding="utf-8"?>
<!-- Generator: Adobe Illustrator 24.3.0, SVG Export Plug-In . SVG Version: 6.00 Build 0)  -->
<svg version="1.1" xmlns="http://www.w3.org/2000/svg" xmlns:xlink="http://www.w3.org/1999/xlink" x="0px" y="0px"
	 viewBox="0 0 120 62" style="enable-background:new 0 0 120 62;" xml:space="preserve">
<style type="text/css">
	.st0{fill-rule:evenodd;clip-rule:evenodd;fill:#CE0E2D;}
	.st1{fill:#CE0E2D;}
</style>
<g id="Capa_1">
	<g id="Capa_1_1_">
	</g>
</g>
<g id="Modo_de_aislamiento">
	<g>
		<path class="st0" d="M65.6,0.5c0.5,0,1.2,0,1.7,0c0.2,0,0.7,0,0.8,0.1c0.1,0.1,0.4,1.1,0.7,2C69.6,5,70.5,6.9,71,9.1
			c0.1,0.4,0.5,1.9,0.7,2.2c0-2,0.1-3.9,0.1-4.9c0-1.9-0.1-1.8-0.2-3.8c0-0.4,0.1-1.7,0.1-1.9c0-0.2,0.9-0.2,1.3-0.2
			c0.5,0,1.3,0,1.3,0.2c0,0.2,0,0.6,0,1c0,2.8,0.2,6.6,0,8.9c-0.1,2.4-0.2,5.1-0.2,7.7c0,0.5,0,1.2-0.1,1.3
			c-0.1,0.1-0.5,0.2-1.2,0.1c-0.4,0-0.7,0.1-1-0.1c-0.1-0.1-0.3-0.5-0.4-0.8c-0.1-0.4-0.2-0.8-0.3-1.3c-0.2-0.7-0.6-2.5-1-3.2
			c-0.6-1.3-0.9-2.6-1.2-3.4c-0.2-0.7-0.4-1.6-0.8-2.1c-0.2,1.7-0.1,6.3-0.1,8.6c0,0.7,0,1.3-0.1,2c-0.1,0.5-1,0.2-1.8,0.4
			c-0.4,0.1-1,0-1-0.2c0-0.2,0-0.5,0-0.8c0-4,0.4-7.5,0.2-12c-0.1-1.4,0-2.7,0.1-3.8c0-0.8-0.1-1.8,0.1-2.4
			C65.5,0.6,65.5,0.5,65.6,0.5"/>
		<path class="st0" d="M48.1,19.8c-1,0.2-1.9,0-2.2-0.1c-0.3-0.1-0.3-0.9-0.3-1.4c-0.1-2.7,0.2-5.5,0-8.2c-0.2-3.1-0.1-5.4,0.1-8.2
			c0-0.5,0-1,0.1-1.2c0.1-0.1,0.6-0.1,1-0.2c1.4-0.1,3.6-0.2,4.5,0.2c2.5,1.1,1.8,6.1,1.7,9.6c-0.1,1.4,0,2.5,0,3.9
			c0,1.3,0.1,2.8-0.2,3.7C52,19.8,50.4,19.5,48.1,19.8 M49.3,17.6c0.4-0.1,0.8-0.3,0.9-0.6c0.3-0.6,0.2-2.2,0.2-3.2V6.8
			c0-1.1,0.1-2.7-0.2-3.4c-0.1-0.2-0.4-0.4-0.8-0.6c-0.4-0.1-0.8-0.1-1,0c-0.1,0.3-0.1,0.7-0.1,1.1c0,0.8-0.1,2.4-0.1,3.1
			c0.1,2.2,0.1,4.8,0.2,7c0.1,2-0.1,3.2-0.1,3.3C48.4,17.7,48.9,17.6,49.3,17.6"/>
		<path class="st0" d="M61.3,0.8c1.6,0.8,1.7,1.4,1.8,5.8c0.1,2-0.2,3.5-0.2,4.9c0,1.3-1,3.7-3.5,3.8c-0.5,0-1.8-0.2-2.2-0.5
			c-1-0.8-1.7-2.2-1.9-4c-0.1-1.3,0.1-1.3,0.1-3c0-2.2-0.2-3.2,0.4-4.7c0.4-1.1,1.3-2.4,2.3-2.7C59.1,0,60.6,0.5,61.3,0.8
			 M60.3,12.1c0.3-0.8,0.1-2.6,0.1-3.4V6.7c0-1,0.2-2.7-0.1-3.2C60,3.1,59.2,2.8,58.7,3c-0.6,0.2-0.5,2-0.5,3.1
			c-0.1,2.7-0.1-0.2-0.1,2.5c0,1.9-0.4,4.3,1.3,4C59.7,12.6,60.2,12.5,60.3,12.1"/>
		<path class="st0" d="M55.5,19.5c0,0.1,0.7,0.2,1.7,0.2c1,0,3.8,0.1,3.8,0.1s1.6,0.2,1.7,0.1c0.3-0.3,0.1-0.9,0.2-1.5
			c0.2-1.1,0-1.8-0.1-1.9c0-0.2-0.6,0-2,0.3c-1.3,0.3-5.4,0.3-5.4,1C55.5,18,55.5,19.4,55.5,19.5"/>
		<path class="st0" d="M40.2,24.5c0,0.2,0.2,2.6-0.1,6.5c-0.2,2.5,0,10,0,13.2c1,0.2,5.8,0.1,8.4,0.1c0.8,0,1.4-0.1,1.7,0
			c0.2,0.1,0.3,0.6,0.2,1.7c-0.1,1,0.1,1.8-0.1,1.9c-0.4,0-1.1,0-1.9,0c-1.4,0-2.7-0.3-5.4-0.1c-2.6,0.2-3,0-4.2,0
			c-0.8,0-1.6,0.1-1.8,0c-0.2-0.1-0.3-1.9-0.4-2.8c-0.1-2.9,0-5.8,0-8.8c0-4,0-11.3,0-11.8C36.5,23.9,40.2,24.2,40.2,24.5"/>
		<path class="st0" d="M61.5,29.9c0,0.6,0,1.6-0.2,1.7c-0.2,0.1-0.8,0.1-1.4,0.1c-0.7-0.1-1.3,0.1-1.4,0c-0.2-0.1,0.1-1.3,0.1-2.2
			c0-1.1-0.1-2-0.8-2.2c-2.5-0.3-2.1,2.4-1.5,4c0.5,1.4,2.1,2.7,3.3,4.3c1.1,1.4,2.4,3.3,2.7,4.9c0.6,3.2-0.3,6.2-2.4,7.2
			c-2.5,1.1-5.2,0.2-6.1-1.2c-0.9-1.3-1.3-3.3-1-4.5c0.3-1.3,0-1.9,0.2-2.4c0.1-0.2,1.1-0.1,1.6-0.1c0.5,0,1.5-0.1,1.5,0.2
			c0,0.2,0,0.8,0,1.5c-0.1,2-0.1,4.4,2.1,3.8c1.5-0.4,1-3.8,0.5-4.8c-0.6-1.3-2.1-2.3-3.2-3.7c-1.1-1.4-2.5-3.6-2.8-5.7
			c-0.2-1.4,0.2-2.8,0.4-3.7c0.3-0.9,0.8-1.9,1.6-2.5c0.9-0.6,2.3-0.8,4.6-0.2C61,24.9,61.6,27.2,61.5,29.9"/>
		<path class="st0" d="M83.1,35.8c0.7,0.3,1.4,0.7,1.8,1.5c0.8,1.9,0.2,5.8,0.4,8.6c0.1,1,0.3,1.7,0.5,1.9c0.1,0.3-0.5,0.2-1.7,0.1
			c-0.8-0.1-1.4,0.2-1.8,0c-0.2-0.1-0.4-1-0.4-1.6c-0.2-1.8-0.1-4.2-0.2-6.2c-0.1-1.7,0-2.7-1.5-3.3c-0.2,0-0.8-0.2-0.8,0.1
			c0,0.2,0,0.4,0,0.7c0,1.4,0,2.5-0.1,3.9c-0.1,1.5,0.1,3.2,0.1,4.7c0,0.5,0,1.3,0,1.5c0,0.2-0.9,0-2,0.1c-1,0.1-1.5,0-1.5-0.2
			c0-0.2,0-0.9,0-1.3c-0.1-2,0.2-4.9,0-8c-0.1-3.1,0-6.6,0.1-8.7c0.1-1.7-0.3-3.2-0.2-4.6c0-0.2-0.1-0.8,0.3-0.9c1.3,0,2.5,0,3.7,0
			c2.6,0,4.2,0.3,5,2.2c0.8,1.9,0.8,5.8,0,7.5C84.4,34.7,83.7,35.4,83.1,35.8 M81.1,27.6c-0.3-0.2-0.7-0.4-1.1-0.4
			c-0.3,0-0.5,0.1-0.7,0.4c0,0.4,0,0.8,0,1.2c0,1.7-0.1,3.3,0,4.8c0,0.3-0.1,0.8,0.2,0.9c0.2,0.1,0.5,0,0.7-0.1
			c0.4-0.1,0.9-0.3,1.1-0.5c0.2-0.2,0.2-0.8,0.2-1.3c0.1-1.2,0.2-2.1,0.1-3.7c0-0.3-0.1-0.8-0.2-1C81.5,27.8,81.4,27.8,81.1,27.6"/>
		<path class="st0" d="M45.2,27.5c0,1.3-0.1,2.3-0.2,3.4c-0.1,1.5,0,2.8,0,4.3c0,1-0.1,1.9-0.1,3.1c-0.6,0-1.9,0-2,0.2
			c-0.1,0.2-0.2,2.9,0.1,2.9c0.6,0.1,1.6,0.1,2.6,0.1c1.4,0.1,4.5,0.3,4.6,0c0-0.3,0.1-1.9,0.1-2.9c0-0.2-0.2-0.3-0.4-0.3
			c-0.2,0-1.2,0-1.7,0c0-1.5,0.2-3.4,0.2-5.1c0.1-1.7,0-3.5-0.1-5.6c0.5,0,1.8,0,1.9-0.2c0-0.1,0-0.7,0.1-1.3
			c0.1-0.6-0.1-1.3-0.1-1.4c-0.1-0.2-1.2-0.2-2.2-0.3c-1.4-0.1-2.2,0.1-3.1,0.1c-0.5,0-1.8-0.1-1.9,0c-0.1,0.2-0.1,0.7-0.2,1.1
			c0,0.5,0.1,1,0.1,1.5c0,0.2,0,0.4,0.2,0.4C43.3,27.5,44.6,27.4,45.2,27.5"/>
		<path class="st0" d="M33.9,46c0.1-1.6-0.3-2.4-0.1-5.3c0-0.2-0.2-0.3-0.4-0.3c-1,0-2.6-0.1-2.8,0.1c-0.1,0.2-0.1,3.1,0,4.3
			c-0.7,0-1.4,0-2-0.1c0-2.4-0.2-4.5-0.1-6.7c0-0.3,0-0.8,0.1-0.8c0.1,0,0.4,0,0.6,0c0.9,0,1.9,0.1,2.1,0c0.3-0.1,0.3-2.7,0-2.9
			c-0.2-0.1-1.2,0-2.1,0c-0.2,0-0.7,0.1-0.7-0.1c0-0.2-0.1-0.9-0.1-1.7c0-0.9,0-4.5,0.1-4.8c0.1-0.3,0.4-0.2,1.1-0.2h0.9
			c-0.1,1.2-0.2,2,0,4.3c0.9,0.1,1.8,0.1,2.8,0.1c0.2,0,0.3-0.1,0.4-0.2c-0.2-2.7,0.2-3.4,0.1-5c0-0.6-0.1-2.1-0.3-2.2
			c-0.3-0.1-1.2-0.1-2.2-0.1c-2,0.1-3.8,0-5.7-0.1c-0.2,0.1-0.4,0-0.4,0.4c0,0.2-0.4,2.3,0,5.4c0.4,3.4-0.1,8.6,0,12.4
			c0,1.9,0,5.3,0.6,5.4c0.6,0.1,2.1-0.2,4,0.1c1.9,0.3,3.6,0,3.8-0.1C33.9,47.8,33.9,46.6,33.9,46"/>
		<path class="st0" d="M92.6,44.5c0.1-6.1,0.3-10.8,0.1-16.7c0.3,0,0.6,0,0.9-0.1c0.3,0,0.9,0,1.1-0.2c0.2-0.2,0.1-0.7,0.1-1
			c0-0.4,0-0.7,0-1.1c0-0.4,0-0.9-0.2-1c-0.2-0.1-2.7-0.1-3.6,0c-0.9,0.1-1.6,0.1-2.2,0c-0.6,0-0.8-0.1-1.1,0
			c-0.3,0-0.2,0.7-0.3,1.1c0,0.6,0,1.2,0,1.8c0,0.2,0.2,0.3,0.5,0.4c0.3,0,1-0.1,1.5,0c0,6-0.3,11-0.1,16.9c-0.3,0-0.7,0-1.1,0.1
			c-0.3,0-0.7,0-0.7,0.2c0,0.3,0,0.8,0,1.2c0,0.6,0,1.2,0.1,1.6c-0.1,0.2,1,0.2,2.9,0.3c0.8,0,2-0.1,3-0.1c0.4,0,1.1,0,1.3,0
			c0.2-0.1,0.2-0.7,0.2-1.1c0-0.6,0-1.1,0.1-1.7c0-0.2,0-0.4-0.4-0.4C93.9,44.6,93.2,44.5,92.6,44.5"/>
		<path class="st0" d="M108.8,36.8c0-0.2-2.4-2.4-2.9-2.7c0-5.7-0.1-10.8-5.5-10c-1.6,0.2-2.1,0.9-2.8,2.3c-0.4,0.7-0.9,1.7-1,2.4
			c-0.4,1.5-0.1,4.2-0.1,6.8c0,2.6-0.1,5.2,0,7.1c0.2,2.6,1.1,4.6,2.2,5.1c1.1,0.5,2.7,0.8,4,0.1c1-0.6,2.6-1.4,2.8-3.3
			c0.2-1.8,0.5-3.5,0.5-5.5C105.9,39,108.7,37.2,108.8,36.8 M102.6,35.5c0.2,3.2,0,4.2-0.1,6.1c0,1.1,0.1,3-1,3.3
			c-0.6,0.2-1.4-0.1-1.7-0.5c-0.3-0.5-0.6-7.2-0.1-12.9c0.1-1.4-0.3-3.6,0.5-4c0.2-0.4,1.5-0.4,1.8,0
			C102.7,29,102.5,32.7,102.6,35.5"/>
		<path class="st0" d="M22.5,37.4c-0.7-1.4-1.4-1.3-1.8-1.9c0.3-0.6,0.9-0.6,1.4-2c0.3-0.9,0.6-2.4,0.4-3.7
			c-0.2-1.3-0.2-2.6-0.5-3.3c-1.1-2.6-4.1-2.2-7.9-2.2c-0.2,0.1-0.3,0.2-0.3,0.4c0,1.7-0.2,1.8,0,3.7c0.1,1.6,0,3.8,0.1,5.2l-1.3,1
			c0,0-1,0.8-1.3,1c-0.2,0.2-0.1,0.5,1.2,1.6c0.6,0.4,0.8,0.9,1.5,1.2c-0.1,3.1,0.1,5.6,0.1,7.4c0,0.8,0.1,1.8,0.1,2
			c0,0.2,0.6,0.3,1.1,0.2c2.1-0.1,4.1,0.2,5,0c0.3-0.1,0.9-0.3,1.3-0.7c0.9-0.7,1.3-2.4,1.7-4.2C23.5,41,23.2,38.8,22.5,37.4
			 M17.2,27.4c0.2-0.2,1.7-0.4,2,0.7c0.1,0.3,0.3,3.6,0,5.3c-0.3,0.4-1.2,0.8-1.8,0.6c-0.3-0.1-0.2-0.2-0.2-1.1c0-0.8-0.1-1.9-0.1-3
			C17.2,28.6,17.1,28.1,17.2,27.4 M19.7,44.4c-0.5,0.7-2.2,1-2.3,0.6c-0.2-0.5,0-5.3-0.1-7.9c0.6-0.8,2-0.3,2.3,0.1
			c0.5,0.6,0.4,2.1,0.6,3.5C20.3,42.3,19.9,43.9,19.7,44.4"/>
		<path class="st0" d="M73.7,46.3c-1.1-8.5-1.8-13.4-1.9-14.6c-0.1-2.4-0.5-4-0.9-6.3c0-0.3-0.1-0.7-0.1-0.9c0-0.2-0.9-0.1-1.4-0.1
			c-1.9,0.1-2.5-0.1-3.5-0.1c-0.3,0-1.1,0-1.1,0.2c0,0.3,0,0.9,0,1.2c0,0.7-0.1,1-0.1,1.7c0,0.2,0.1,0.4,0.3,0.4
			c0.2,0,0.8,0.1,1.2,0.1c-0.9,6.1-1.6,12-2.3,18.4c-0.1,0.5-0.3,1.5-0.1,1.6C64.1,48,64.5,48,65,48c0.7-0.1,1,0,1.4-0.2
			c0.6-1,0.2-3,0.8-4c1.1,0,2.2,0,2.9,0.3c0.3,0.7,0.3,1.6,0.3,2.5c0,0.5,0.1,1.4,0.4,1.4c0.5,0,1,0,1.5,0c0.6,0,1.4-0.1,1.5-0.2
			C74,47.6,73.8,46.8,73.7,46.3 M67.4,40.9c0.2-3.1,0.7-6,1-9c0.1,0,0.1,0.1,0.1,0.1c0.9,2.4,0.6,6.1,1.1,9
			C69.1,41.3,68,41,67.4,40.9"/>
		<g>
			<path class="st1" d="M26.9,61.7h-1v-6.3h1.5c0.8,0,1.2,0.4,1.2,1.2v1.7c0,0.8-0.4,1.2-1.2,1.2h-0.5V61.7z M27.3,56.3h-0.4v2.3
				h0.4c0.2,0,0.4-0.1,0.4-0.4v-1.6C27.6,56.4,27.5,56.3,27.3,56.3z"/>
		</g>
		<g>
			<path class="st1" d="M31.9,61.8h-0.5c-0.8,0-1.2-0.4-1.2-1.2v-4.1c0-0.8,0.4-1.2,1.2-1.2h0.5c0.8,0,1.2,0.4,1.2,1.2v4.1
				C33.1,61.4,32.7,61.8,31.9,61.8z M31.8,56.2h-0.2c-0.2,0-0.4,0.1-0.4,0.4v4c0,0.3,0.1,0.4,0.4,0.4h0.2c0.2,0,0.4-0.1,0.4-0.4v-4
				C32.1,56.4,32,56.2,31.8,56.2z"/>
			<path class="st1" d="M36,55.4v5.4H37v0.9h-2v-6.3H36z"/>
		</g>
		<g>
			<path class="st1" d="M39.8,55.4v5.4h1.1v0.9h-2v-6.3H39.8z"/>
			<path class="st1" d="M44.2,61.8h-0.5c-0.8,0-1.2-0.4-1.2-1.2v-4.1c0-0.8,0.4-1.2,1.2-1.2h0.5c0.8,0,1.2,0.4,1.2,1.2v4.1
				C45.4,61.4,45,61.8,44.2,61.8z M44.1,56.2h-0.2c-0.3,0-0.4,0.1-0.4,0.4v4c0,0.3,0.1,0.4,0.4,0.4h0.2c0.2,0,0.4-0.1,0.4-0.4v-4
				C44.5,56.4,44.3,56.2,44.1,56.2z"/>
			<path class="st1" d="M50.1,59.6v1c0,0.8-0.4,1.2-1.2,1.2h-0.4c-0.8,0-1.2-0.4-1.2-1.2v-1.3h0.9v1.3c0,0.2,0.1,0.4,0.4,0.4h0.1
				c0.2,0,0.4-0.1,0.4-0.4v-0.9c0-0.3-0.1-0.4-0.3-0.5l-1-0.7c-0.4-0.3-0.6-0.6-0.6-1.1v-0.9c0-0.8,0.4-1.2,1.2-1.2h0.4
				c0.8,0,1.2,0.4,1.2,1.2v1.1h-0.9v-1.1c0-0.2-0.1-0.4-0.4-0.4h-0.1c-0.2,0-0.4,0.1-0.4,0.4v0.7c0,0.3,0.1,0.4,0.3,0.5l1,0.7
				C49.9,58.8,50.1,59.1,50.1,59.6z"/>
			<path class="st1" d="M57.4,61.7h-1l-0.1-1h-1l-0.1,1h-0.9l0.9-6.3h1.3L57.4,61.7z M55.4,59.9h0.8l-0.4-3.1L55.4,59.9z"/>
			<path class="st1" d="M62.7,55.4v5.4h1.1v0.9h-2v-6.3H62.7z"/>
		</g>
		<g>
			<path class="st1" d="M68.4,61.7h-1l-0.1-1h-1l-0.1,1h-0.9l0.9-6.3h1.3L68.4,61.7z M66.5,59.9h0.8l-0.4-3.1L66.5,59.9z"/>
		</g>
		<g>
			<path class="st1" d="M75.3,59.4v1.2c0,0.8-0.4,1.2-1.2,1.2h-1.6v-6.3h1.5c0.8,0,1.2,0.4,1.2,1.2v0.9c0,0.6-0.2,0.8-0.5,1
				C75.1,58.6,75.3,58.9,75.3,59.4z M74,56.3h-0.5v1.8h0.4c0.3,0,0.4-0.1,0.4-0.4v-1.1C74.3,56.4,74.2,56.3,74,56.3z M73.5,60.9H74
				c0.2,0,0.4-0.1,0.4-0.4v-1.2c0-0.3-0.1-0.4-0.4-0.4h-0.4V60.9z"/>
			<path class="st1" d="M80,59.6v2.1h-1v-2.1c0-0.3-0.1-0.4-0.4-0.4h-0.4v2.5h-1v-6.3h1.6c0.8,0,1.2,0.4,1.2,1.2v1.2
				c0,0.6-0.2,0.8-0.6,1C79.8,58.9,80,59.1,80,59.6z M78.7,56.3h-0.5v2.1h0.4c0.3,0,0.4-0.1,0.4-0.4v-1.3
				C79,56.4,78.9,56.3,78.7,56.3z"/>
			<path class="st1" d="M84.8,61.7h-1l-0.1-1h-1l-0.1,1h-0.9l0.9-6.3h1.3L84.8,61.7z M82.9,59.9h0.8l-0.4-3.1L82.9,59.9z"/>
			<path class="st1" d="M89.3,59.6v1c0,0.8-0.4,1.2-1.2,1.2h-0.4c-0.8,0-1.2-0.4-1.2-1.2v-1.3h0.9v1.3c0,0.2,0.1,0.4,0.4,0.4H88
				c0.2,0,0.4-0.1,0.4-0.4v-0.9c0-0.3-0.1-0.4-0.3-0.5l-1-0.7c-0.4-0.3-0.6-0.6-0.6-1.1v-0.9c0-0.8,0.4-1.2,1.2-1.2h0.4
				c0.8,0,1.2,0.4,1.2,1.2v1.1h-0.9v-1.1c0-0.2-0.1-0.4-0.4-0.4h-0.1c-0.2,0-0.4,0.1-0.4,0.4v0.7c0,0.3,0.1,0.4,0.3,0.5l1,0.7
				C89.2,58.8,89.3,59.1,89.3,59.6z"/>
			<path class="st1" d="M94.1,61.7h-0.9l-0.1-1h-1l-0.1,1H91l0.9-6.3h1.3L94.1,61.7z M92.1,59.9h0.8l-0.4-3.1L92.1,59.9z"/>
		</g>
	</g>
</g>
</svg>
