<?xml version="1.0" encoding="utf-8"?>
<!-- Generator: Adobe Illustrator 24.3.0, SVG Export Plug-In . SVG Version: 6.00 Build 0)  -->
<svg version="1.1" xmlns="http://www.w3.org/2000/svg" xmlns:xlink="http://www.w3.org/1999/xlink" x="0px" y="0px"
	 viewBox="0 0 120 62" style="enable-background:new 0 0 120 62;" xml:space="preserve">
<style type="text/css">
	.st0{fill:#030203;}
	.st1{fill:#C22115;}
	.st2{fill:#FFFFFF;}
	.st3{fill:#00AA47;}
</style>
<g id="Capa_1">
	<g id="Capa_1_1_">
	</g>
</g>
<g id="Modo_de_aislamiento">
	<g id="XMLID_1_">
		<g id="XMLID_2_">
			<path id="XMLID_22_" class="st0" d="M60.9,54.9c19.6,0,35.6-15.9,35.6-35.6H25.3C25.3,38.9,41.2,54.9,60.9,54.9"/>
			<path id="XMLID_21_" class="st1" d="M33.3,0.5c2.2,0,3.7,0.6,5.4,1.9C39.5,3.1,40,3.6,40,4.6c0,0.8-0.7,1.7-1.8,1.7
				c-0.5,0-0.9-0.2-1.3-0.6c-1-0.9-1.9-1.5-3.4-1.5c-2.5,0-4.5,2.1-4.5,4.5c0,2.6,2,4.6,4.6,4.6c1.8,0,2.8-1,3.4-1.6
				c0.4-0.3,0.8-0.6,1.3-0.6c1.2,0,1.9,0.9,1.9,1.7c0,1.8-3.3,4.1-6.5,4.1c-4.6,0-8.3-3.7-8.3-8.2C25.3,4.2,29,0.5,33.3,0.5"/>
			<path id="XMLID_20_" class="st1" d="M46.1,6.9H52V2.7c0-1.3,0.8-2,1.8-2c1,0,1.8,0.7,1.8,2v12.1c0,1.3-0.8,2.1-1.8,2.1
				c-1,0-1.8-0.7-1.8-2.1v-4.5h-5.9v4.5c0,1.3-0.8,2.1-1.8,2.1c-1,0-1.8-0.7-1.8-2.1V2.7c0-1.3,0.8-2,1.8-2c1,0,1.8,0.7,1.8,2V6.9z"
				/>
			<path id="XMLID_19_" class="st1" d="M59.2,2.7c0-1.3,0.8-2,1.8-2c1,0,1.8,0.7,1.8,2v12.1c0,1.3-0.8,2.1-1.8,2.1
				c-1,0-1.8-0.7-1.8-2.1V2.7z"/>
			<path id="XMLID_18_" class="st1" d="M76.1,10.1V2.7c0-1.3,0.8-2,1.8-2c1,0,1.8,0.7,1.8,2v11.8c0,0.3,0,0.8-0.1,1.1
				c-0.2,0.7-1,1.2-1.8,1.2c-0.9,0-1.3-0.4-1.8-1.1l-6.5-8.3v7.3c0,1.3-0.8,2.1-1.8,2.1c-1,0-1.8-0.7-1.8-2.1V2.5
				c0-1.1,0.7-1.9,1.8-1.9c0.7,0,1.1,0.4,1.6,1L76.1,10.1z"/>
			<path id="XMLID_15_" class="st1" d="M90.8,10.8l-1.9-4.6L87,10.8H90.8z M92.1,14h-6.4l-0.5,1.1c-0.5,1-1,1.7-1.7,1.7
				c-1.4,0-2-1-2-1.6c0-0.7,0.3-1.2,0.4-1.5l5.3-11.8c0.3-0.7,0.9-1.1,1.8-1.1c0.8,0,1.4,0.5,1.7,1.1L96,13.6
				c0.2,0.4,0.4,0.9,0.4,1.5c0,0.7-0.6,1.7-2,1.7c-0.8,0-1.3-0.6-1.8-1.6L92.1,14z"/>
			<path id="XMLID_14_" class="st2" d="M49.1,31.1l2.2-7.5c0.4-1.2,0.8-1.9,1.9-1.9c1,0,1.8,0.8,1.8,1.7c0,0.4-0.2,0.9-0.3,1.2
				l-3.8,11.9C50.6,37.5,50,38,49.2,38c-0.9,0-1.5-0.5-1.8-1.3l-3-8.4l-2.9,8.4c-0.3,0.8-0.9,1.3-1.8,1.3c-1,0-1.4-0.6-1.7-1.4
				l-3.9-11.8C34.2,24.4,34,24,34,23.6c0-1,0.8-1.8,1.8-1.8c1.1,0,1.6,0.7,1.9,1.9l2.3,7.5l2.7-8.1c0.3-0.8,1-1.3,1.8-1.3
				c0.8,0,1.5,0.5,1.7,1.1L49.1,31.1z"/>
			<path id="XMLID_11_" class="st2" d="M59.5,29.8c0,2.6,2,4.6,4.6,4.6c2.5,0,4.5-2,4.5-4.5c0-2.6-2-4.7-4.5-4.7
				C61.6,25.3,59.5,27.4,59.5,29.8 M72.3,30c0,4.4-3.7,8.1-8.2,8.1c-4.6,0-8.2-3.6-8.2-8.3c0-4.4,3.7-8.1,8.2-8.1
				C68.6,21.7,72.3,25.4,72.3,30"/>
			<path id="XMLID_10_" class="st2" d="M81.5,29.6l5.2,4.8c0.6,0.5,1,1,1,1.7c0,1-0.8,1.8-1.8,1.8c-0.7,0-1.2-0.4-1.7-0.9l-6.1-5.7
				v4.6c0,1.3-0.8,2.1-1.8,2.1c-1,0-1.8-0.7-1.8-2.1V23.8c0-1.3,0.8-2.1,1.8-2.1c1,0,1.8,0.7,1.8,2.1V28l5.3-5.3
				c0.5-0.5,1-0.9,1.7-0.9c1,0,1.8,0.8,1.8,1.8c0,0.7-0.4,1.2-1,1.7L81.5,29.6z"/>
			<path id="XMLID_9_" class="st3" d="M94.7,40.4l-68.5,0c-0.4,0-0.7,0.3-0.8,0.7c0,0,0,0,0,0c0,0,0,0.1,0,0.1c0,0,0,0.1,0,0.1
				c0.1,0.4,0.4,0.7,0.8,0.7l68.5,2c1,0,1.8-0.8,1.9-1.8C96.5,41.3,95.7,40.4,94.7,40.4"/>
			<path id="XMLID_8_" class="st3" d="M86.5,58.1L22.1,34.7c-0.4-0.1-0.8,0-1,0.4c0,0,0,0,0,0c0,0,0,0.1,0,0.1c0,0,0,0.1,0,0.1
				c-0.1,0.4,0.1,0.8,0.5,0.9l63.7,25.3c0.9,0.4,2-0.1,2.4-1.1C87.9,59.5,87.5,58.5,86.5,58.1"/>
			<path id="XMLID_3_" class="st0" d="M101.2,23.4c0.5,0,1.1,0,1.1-0.6c0-0.5-0.4-0.6-0.8-0.6h-0.8v1.2H101.2z M100.6,25.3h-0.4
				v-3.5h1.3c0.8,0,1.1,0.3,1.1,1s-0.4,0.9-0.9,1l1,1.6h-0.5l-1-1.6h-0.7V25.3z M98.7,23.5c0,1.4,1.1,2.6,2.6,2.6
				c1.5,0,2.6-1.2,2.6-2.6c0-1.5-1.1-2.6-2.6-2.6C99.8,20.9,98.7,22.1,98.7,23.5 M104.3,23.5c0,1.7-1.3,3-3,3c-1.7,0-3-1.3-3-3
				c0-1.7,1.3-3,3-3C103,20.5,104.3,21.8,104.3,23.5"/>
		</g>
	</g>
</g>
</svg>
