<?xml version="1.0" encoding="utf-8"?>
<!-- Generator: Adobe Illustrator 24.3.0, SVG Export Plug-In . SVG Version: 6.00 Build 0)  -->
<svg version="1.1" xmlns="http://www.w3.org/2000/svg" xmlns:xlink="http://www.w3.org/1999/xlink" x="0px" y="0px"
	 viewBox="0 0 120 62" style="enable-background:new 0 0 120 62;" xml:space="preserve">
<style type="text/css">
	.st0{fill:#E86532;}
	.st1{fill:#DF367F;}
</style>
<g id="Capa_1">
	<g id="Capa_1_1_">
	</g>
	<g>
		<g>
			<g>
				<g>
					<g>
						<path class="st0" d="M0.4,37.5V24.5c0-2.2,1.6-3.8,3.8-3.8h4.6c6,0,10.8,4,10.8,10.3c0,6.3-4.8,10.3-10.8,10.3H4.2
							C2,41.3,0.4,39.7,0.4,37.5z M9,34.7c2.2,0,3.8-1.4,3.8-3.7s-1.6-3.7-3.8-3.7H7.2v7.4H9z"/>
					</g>
					<g>
						<path class="st0" d="M21.4,32.9v-9.1c0-2,1.4-3.5,3.4-3.5c2,0,3.4,1.5,3.4,3.5v8.9c0,1.4,1,2.3,2.2,2.3c1.2,0,2.2-0.9,2.2-2.3
							v-8.9c0-2,1.4-3.5,3.4-3.5c2,0,3.4,1.5,3.4,3.5v9.1c0,5.1-3.6,8.8-9,8.8S21.4,38,21.4,32.9z"/>
					</g>
					<g>
						<path class="st0" d="M41.7,37.8V23.5c0-1.9,1.4-3.2,3.3-3.2c1.4,0,2.4,0.6,3.2,1.7l3.9,5.3c0.7,0.9,1.5,2,2.1,3.1v-6.3
							c0-2.2,1.2-3.8,3.4-3.8c2.2,0,3.4,1.6,3.4,3.8v14.4c0,1.9-1.4,3.2-3.3,3.2c-1.5,0-2.4-0.6-3.2-1.7l-4.2-5.3
							c-0.6-0.8-1.3-1.8-1.9-2.7v5.9c0,2.3-1.2,3.8-3.4,3.8C42.9,41.7,41.7,40.1,41.7,37.8z"/>
					</g>
					<g>
						<path class="st0" d="M74.3,40.2l-2.7-3.3c-0.6-0.8-0.9-1.1-1.5-1.9v3.2c0,2-1.4,3.5-3.4,3.5c-2,0-3.4-1.4-3.4-3.5V23.8
							c0-2,1.4-3.5,3.4-3.5c2,0,3.4,1.4,3.4,3.5v3.1c0.5-0.8,0.8-1.1,1.5-2l2.3-3c3.1-4,8.6,0.7,5.3,4.6l-3.8,4.4l4.1,4.6
							C82.8,39.1,77.6,44.2,74.3,40.2z"/>
					</g>
					<g>
						<path class="st0" d="M82.7,38.2V23.8c0-2,1.4-3.5,3.4-3.5c2,0,3.4,1.4,3.4,3.5v14.4c0,2-1.4,3.5-3.4,3.5
							C84.1,41.7,82.7,40.2,82.7,38.2z"/>
					</g>
					<g>
						<path class="st0" d="M91.9,37.8V23.5c0-1.9,1.4-3.2,3.3-3.2c1.4,0,2.4,0.6,3.2,1.7l3.9,5.3c0.7,0.9,1.5,2,2.1,3.1v-6.3
							c0-2.2,1.2-3.8,3.4-3.8c2.2,0,3.4,1.6,3.4,3.8v14.4c0,1.9-1.4,3.2-3.3,3.2c-1.5,0-2.4-0.6-3.2-1.7l-4.2-5.3
							c-0.6-0.8-1.3-1.8-1.9-2.7v5.9c0,2.3-1.2,3.8-3.4,3.8S91.9,40.1,91.9,37.8z"/>
					</g>
				</g>
			</g>
			<path class="st1" d="M116.9,20.4c1.2,0.2,2.4,1,2.7,2.4c0.1,0.8-0.1,1.9-0.4,3.1c-0.3,1.2-0.7,2.4-1.5,3c-0.6,0.5-1.4,0.7-2,0.6
				l0,0c-0.6-0.1-1.3-0.4-1.8-1.1c-0.6-0.9-0.6-2-0.6-3.3c0-1.3,0.1-2.4,0.4-3.1C114.3,20.7,115.7,20.2,116.9,20.4"/>
		</g>
		<g>
			<path class="st0" d="M115,40.2c0,0.7-0.6,1.3-1.3,1.3c-0.7,0-1.3-0.6-1.3-1.3c0-0.7,0.6-1.3,1.3-1.3
				C114.4,38.9,115,39.5,115,40.2z M114.6,40.2c0-0.5-0.4-0.9-0.9-0.9c-0.5,0-0.9,0.4-0.9,0.9c0,0.5,0.4,0.9,0.9,0.9
				C114.2,41.1,114.6,40.7,114.6,40.2z M114.2,40.5c0,0,0.1,0.1,0.1,0.1c0,0.1-0.1,0.2-0.2,0.2c-0.1,0-0.1,0-0.2-0.1l-0.3-0.3h0v0.2
				c0,0.1-0.1,0.2-0.2,0.2c-0.1,0-0.2-0.1-0.2-0.2v-0.9c0-0.1,0.1-0.2,0.2-0.2h0.4c0.2,0,0.4,0.2,0.4,0.4c0,0.2-0.1,0.3-0.2,0.4
				L114.2,40.5z M113.6,40.1h0.1c0.1,0,0.1,0,0.1-0.1s-0.1-0.1-0.1-0.1h-0.1V40.1z"/>
		</g>
	</g>
</g>
<g id="Modo_de_aislamiento">
</g>
</svg>
