<?xml version="1.0" encoding="utf-8"?>
<!-- Generator: Adobe Illustrator 24.3.0, SVG Export Plug-In . SVG Version: 6.00 Build 0)  -->
<svg version="1.1" xmlns="http://www.w3.org/2000/svg" xmlns:xlink="http://www.w3.org/1999/xlink" x="0px" y="0px"
	 viewBox="0 0 120 62" style="enable-background:new 0 0 120 62;" xml:space="preserve">
<style type="text/css">
	.st0{fill:#E22E1B;}
</style>
<g id="Capa_1">
	<g id="Capa_1_1_">
	</g>
	<g>
		<g>
			<path class="st0" d="M37.2,54.9c-2.7,0-4.4-2.1-4.4-5.3s1.7-5.3,4.4-5.3c2.8,0,4.4,2.1,4.4,5.3S40,54.9,37.2,54.9z M77.2,38.4
				h-5.9v22.3h6.8v-9.4l5.9,9.4h5.5V38.4h-6.8v9.8L77.2,38.4z M69,38.4h-7.2v7.8h-4.6v-7.8h-7.2v22.3h7.2v-8.1h4.6v8.1H69V38.4z
				 M17.2,53c0,1.5-1,2-2.2,2c-0.7,0-1.5-0.1-2.3-0.4v6.2c1.5,0.5,2.7,0.6,3.6,0.6c4.1,0,8.1-1.8,8.1-9.1V38.4h-7.2V53z M37.2,37.8
				c-6.8,0-11.6,4.9-11.6,11.7s4.8,11.7,11.6,11.7s11.6-4.9,11.6-11.7S43.9,37.8,37.2,37.8z M98.3,44.7c0-0.6,0.5-1,1.5-1
				c1.9,0,4.5,1,5.8,2v-6.2c-1.7-1.1-4.2-1.7-6.4-1.7c-4.2,0-8,2.2-8,7.3c0,7.3,8.5,7,8.5,9.2c0,0.7-0.5,1.1-1.8,1.1
				c-2.2,0-5.7-1.5-6.7-2.4v6.4c1.4,1,4.4,1.8,7.2,1.8c5,0,8.3-2.5,8.3-7.2C106.8,46.5,98.3,47,98.3,44.7z M93,17.5l1.6,7h-3.8
				L93,17.5z M47.4,14.3l1.8,8.8h-4L47.4,14.3z M28.7,16.3c0,2.3-1,3.7-4.3,5.1v-6.7c0.9-0.5,1.6-0.7,2.3-0.7
				C28.2,13.9,28.7,15.2,28.7,16.3z M75.2,13.8c0,3.3-2.4,4.6-4.5,4.6h-0.1V9.7C73.6,9.9,75.2,11.2,75.2,13.8z M37.1,15.2
				c0-6-3.6-8.6-8.5-8.6c-3.7,0-8.1,1.4-12.4,4v23.5h8.2v-5.4C31.2,27.1,37.1,22.4,37.1,15.2z M88.8,30.9h7.7l0.8,3.2h8.7L97.7,8.9
				C96,7.7,92.3,6.3,90,5.8L79.1,34.2h8.4L88.8,30.9z M43.3,30.1H51l1.2,4h9L51.4,1.6c-2.4,0.2-6.1,1-8.1,1.6l-10,31h8.9L43.3,30.1z
				 M70.7,26.5c8.3-0.1,13.4-4.8,13.4-12.6C84.1,4.4,76,0,62.2,0.8v33.4h8.5V26.5z"/>
		</g>
		<g>
			<g>
				<path class="st0" d="M109,15.9c0,1-0.3,1.8-1,2.5c-0.7,0.7-1.5,1-2.5,1c-1,0-1.8-0.3-2.5-1c-0.7-0.7-1-1.5-1-2.4
					c0-1,0.3-1.8,1-2.5s1.5-1,2.5-1c1,0,1.8,0.3,2.5,1C108.7,14.1,109,14.9,109,15.9z M108.6,15.9c0-0.9-0.3-1.6-0.9-2.2
					c-0.6-0.6-1.3-0.9-2.2-0.9c-0.9,0-1.6,0.3-2.2,0.9c-0.6,0.6-0.9,1.3-0.9,2.2s0.3,1.6,0.9,2.2c0.6,0.6,1.3,0.9,2.2,0.9
					c0.9,0,1.6-0.3,2.2-0.9S108.6,16.8,108.6,15.9z M107.6,17.8h-1.2l-1.1-1.3H105v1.3h-1v-4h1.5c0.5,0,0.9,0.1,1.2,0.3
					c0.3,0.2,0.4,0.5,0.4,1c0,0.3-0.1,0.5-0.2,0.7c-0.1,0.2-0.3,0.4-0.6,0.5L107.6,17.8z M105.4,14.6H105v1.2h0.4
					c0.2,0,0.4-0.1,0.5-0.2c0.1-0.1,0.2-0.2,0.2-0.4c0-0.2-0.1-0.3-0.2-0.4C105.8,14.7,105.7,14.6,105.4,14.6z"/>
			</g>
		</g>
	</g>
</g>
<g id="Modo_de_aislamiento">
</g>
</svg>
