<?xml version="1.0" encoding="utf-8"?>
<!-- Generator: Adobe Illustrator 24.3.0, SVG Export Plug-In . SVG Version: 6.00 Build 0)  -->
<svg version="1.1" xmlns="http://www.w3.org/2000/svg" xmlns:xlink="http://www.w3.org/1999/xlink" x="0px" y="0px"
	 viewBox="0 0 120 62" style="enable-background:new 0 0 120 62;" xml:space="preserve">
<style type="text/css">
	.st0{fill:#EF7B00;}
</style>
<g id="Capa_1">
	<g id="Capa_1_1_">
	</g>
	<g>
		<g>
			<path class="st0" d="M40.4,43.1c-0.8-0.3-1.1-0.4-1.1-0.7c0-0.3,0.3-0.4,0.7-0.4c0.5,0,0.8,0.3,0.9,0.8l0.9-0.7
				c-0.3-0.7-0.8-1.2-1.8-1.2c-0.9,0-1.9,0.5-1.9,1.6c0,1,0.5,1.3,1.8,1.7c0.6,0.2,0.9,0.4,0.9,0.7c0,0.2-0.2,0.4-0.6,0.4
				c-0.6,0-1.1-0.5-1.3-0.9L37.9,45c0.4,0.8,1.2,1.3,2.1,1.3c1.1,0,2-0.7,2-1.6C42,43.9,41.6,43.5,40.4,43.1z"/>
			<rect x="35.2" y="40.9" class="st0" width="1.2" height="5.4"/>
			<polygon class="st0" points="19.1,40.9 17.9,40.9 17.9,46.3 21.6,46.3 21.6,45.1 19.1,45.1 			"/>
			<path class="st0" d="M25.1,40.9c-1.5,0-2.5,1-2.5,2.8c0,1.8,1.1,2.8,2.5,2.8c1.5,0,2.5-1,2.5-2.8C27.7,41.9,26.6,40.9,25.1,40.9z
				 M25.1,45.2c-0.8,0-1.3-0.6-1.3-1.6c0-1,0.5-1.6,1.3-1.6c0.8,0,1.3,0.6,1.3,1.6C26.4,44.7,25.9,45.2,25.1,45.2z"/>
			<rect x="43.4" y="40.9" class="st0" width="1.2" height="5.4"/>
			<path class="st0" d="M32.3,43.9c0,1-0.4,1.3-1,1.3c-0.7,0-1-0.3-1-1.3v-3h-1.2v3.2c0,1.6,0.9,2.3,2.2,2.3c1.3,0,2.2-0.7,2.2-2.3
				v-3.2h-1.2V43.9z"/>
			<polygon class="st0" points="87.9,43 86,43 86,40.9 84.8,40.9 84.8,46.3 86,46.3 86,44.1 87.9,44.1 87.9,46.3 89.1,46.3 
				89.1,40.9 87.9,40.9 			"/>
			<path class="st0" d="M81.3,45.2c-0.7,0-1.2-0.6-1.2-1.6c0-1,0.5-1.6,1.2-1.6c0.5,0,0.8,0.3,0.9,1l1.1-0.3c-0.1-1.2-0.7-1.9-2-1.9
				c-1.4,0-2.5,1-2.5,2.8c0,1.8,1.1,2.8,2.5,2.8c1.2,0,1.9-0.6,2.2-1.8l-1.2-0.3C82.2,44.9,81.9,45.2,81.3,45.2z"/>
			<polygon class="st0" points="70.3,40.9 68.8,40.9 67.2,42.9 67.2,40.9 66,40.9 66,46.3 67.2,46.3 67.2,44.7 67.7,44.1 68.9,46.3 
				70.3,46.3 68.5,43 			"/>
			<path class="st0" d="M59.5,40.9l-1.8,5.4h1.2l0.4-1.2H61l0.4,1.2h1.2l-1.8-5.4H59.5z M59.6,44l0.5-1.7l0.5,1.7H59.6z"/>
			<rect x="71.5" y="40.9" class="st0" width="1.2" height="5.4"/>
			<polygon class="st0" points="55.3,44.4 53.4,40.9 52,40.9 52,46.3 53.2,46.3 53.2,43 55.1,46.3 56.5,46.3 56.5,40.9 55.3,40.9 
							"/>
			<path class="st0" d="M47.6,40.9l-1.8,5.4H47l0.4-1.2h1.8l0.4,1.2h1.2L49,40.9H47.6z M47.8,44l0.5-1.7l0.5,1.7H47.8z"/>
			<polygon class="st0" points="92,44.1 94.2,44.1 94.2,43 92,43 92,42.1 94.4,42.1 94.4,40.9 90.8,40.9 90.8,46.3 94.5,46.3 
				94.5,45.1 92,45.1 			"/>
			<polygon class="st0" points="99.1,44.4 97.3,40.9 95.9,40.9 95.9,46.3 97.1,46.3 97.1,43 99,46.3 100.4,46.3 100.4,40.9 
				99.1,40.9 			"/>
			<polygon class="st0" points="73.9,42.1 75.4,42.1 75.4,46.3 76.6,46.3 76.6,42.1 78.1,42.1 78.1,40.9 73.9,40.9 			"/>
		</g>
		<g>
			<g>
				<path class="st0" d="M118.9,32.2c-0.6,0-1.1,0.5-1.1,1.1c0,0.7,0.5,1.1,1.1,1.1c0.6,0,1.1-0.5,1.1-1.1
					C120,32.6,119.5,32.2,118.9,32.2z M118.9,34.3c-0.5,0-0.9-0.4-0.9-1c0-0.5,0.4-1,0.9-1c0.5,0,0.9,0.4,0.9,1
					C119.8,33.8,119.4,34.3,118.9,34.3z"/>
				<path class="st0" d="M119.4,33c0-0.3-0.2-0.4-0.5-0.4h-0.5V34h0.3v-0.6h0.2l0.3,0.6h0.3l-0.4-0.6
					C119.3,33.4,119.4,33.3,119.4,33z M118.6,33.2v-0.4h0.2c0.1,0,0.3,0,0.3,0.2c0,0.2-0.1,0.2-0.3,0.2H118.6z"/>
			</g>
			<path class="st0" d="M113.8,23.7c-1-0.4-2.2-0.8-3-1.2c-0.8-0.3-1-0.7-1-1.2c0-0.7,0.7-1.1,1.6-1.1c1.4,0,2.5,0.6,3.5,1.7
				l3.1-3.2c-1.3-1.8-3.6-2.9-6.5-2.9c-3.9,0-7,1.9-7,5.6c0,3,1.4,4.4,4.2,5.6c0.8,0.3,1.8,0.6,2.6,1c0.7,0.3,1.1,0.6,1.1,1.2
				c0,0.5-0.5,0.9-1.8,0.9c-1.2,0-3-0.5-4.3-1.3l-1.9,3.8c1.8,1.3,3.9,1.8,6.1,1.8c3.4,0,7.1-1.5,7.1-5.5
				C117.8,26,115.9,24.5,113.8,23.7z M7.1,15.7C5,15.6,1.5,15.8,0,15.9l0.1,4.5l1.4-0.1l0,14h5.6v-3.5c8.1-0.4,10-4.7,10-7.8
				C17.2,18.6,13.6,16,7.1,15.7z M7.1,26.4v-6.1c3.5,0.2,4.4,1.7,4.4,2.9C11.5,25,10.4,26.3,7.1,26.4z M62.7,15.9
				c-5.4,0-9.1,3.9-9.1,9.3s3.5,9.4,9.7,9.4c2.8,0,5.2-0.7,7.1-2.2l-2.2-4c-1.4,1-2.9,1.5-4.7,1.5c-2.3,0-3.7-1.1-4.2-2.9h11.9
				c0.1-0.5,0.2-1.6,0.2-2.5C71.3,20.7,69.3,15.9,62.7,15.9z M59.3,23.2c0.4-1.8,1.6-3,3.5-3c1.8,0,3.1,1.1,3.3,3H59.3z M27,16
				c-5.1,0-9.4,3.8-9.4,9.2s4.3,9.2,9.4,9.2c5.1,0,9.4-3.8,9.4-9.2S32.1,16,27,16z M27.1,29.4c-2.5,0-4.1-1.9-4.1-4.3
				c0-2.4,1.6-4.3,4.1-4.3c2.5,0,4.1,1.9,4.1,4.3C31.1,27.5,29.5,29.4,27.1,29.4z M82.5,16.5L79,24.1l-3.3-7.5h-6L76,29.4v4.9h5.8
				v-4.9l6.8-12.9H82.5z M43.3,15.8c-2.1-0.1-5.6,0.1-7.1,0.2l0.1,4.5l1.4-0.1l0,13.9h5.5v-3.5c8.1-0.4,9.9-4.7,9.9-7.7
				C53.2,18.8,49.7,16.1,43.3,15.8z M43.3,26.5v-6.1c3.5,0.2,4.4,1.7,4.4,2.9C47.6,25.1,46.5,26.4,43.3,26.5z M95.5,15.9
				c-5.4,0-9.1,3.9-9.1,9.3s3.6,9.4,9.6,9.4c2.5,0,4.7-0.5,6.5-1.8l-2-4.1c-1.3,0.8-2.7,1.3-4.3,1.3c-2.2,0-3.6-1.1-4.2-2.9h11.8
				c0.1-0.5,0.2-1.6,0.2-2.5C104.1,20.7,102.1,15.9,95.5,15.9z M92,23.2c0.4-1.8,1.6-3,3.5-3c1.8,0,3.1,1.1,3.3,3H92z"/>
		</g>
	</g>
</g>
<g id="Modo_de_aislamiento">
</g>
</svg>
